<?xml version="1.0" encoding="UTF-8"?><svg id="Layer_1" xmlns="http://www.w3.org/2000/svg" width="60" height="60" viewBox="0 0 60 60"><defs><style>.cls-1{fill:#3ba4d8;}.cls-1,.cls-2{stroke-width:0px;}.cls-2{fill:#fff;}</style></defs><rect class="cls-1" width="60" height="60"/><path class="cls-2" d="M64.13,17.11c0,4.81-3.43,9.65-10.3,14.52-7.86,5.63-17.78,9.09-29.74,10.38L6.22,63.4c-.76.94-1.7,1.41-2.82,1.41-.65,0-1.19-.31-1.63-.93-.44-.62-.66-1.22-.66-1.81,0-.71.17-1.27.51-1.68l14.9-17.84h-2.12c-2.82,0-4.23-1.06-4.23-3.18s1.26-3.26,3.77-3.26c.53,0,1.31.04,2.37.13s1.87.13,2.46.13c1.23,0,2.19-.04,2.89-.12l11.92-14.4c1.41-1.99,2.73-2.99,3.96-2.99,1.7,0,2.55.73,2.55,2.2,0,.94-3.46,5.66-10.38,14.17,7.45-1.47,13.9-3.67,19.36-6.6,6.16-3.29,9.36-6.72,9.59-10.3.12-1.52-3.26-2.29-10.12-2.29-8.45,0-18.39,1.69-29.83,5.07C7.28,24.51,1.56,27.52,1.56,30.14c0,.18.18.26.53.26.59,0,1.89-.35,3.92-1.06,2.03-.7,3.39-1.06,4.09-1.06s1.14.23,1.32.7c0,1.47-1.63,3.01-4.88,4.62-3.26,1.61-6.56,2.42-9.9,2.42-6.57,0-9.86-3.2-9.86-9.59S-7.33,13.54,4.46,7.79C15.73,2.27,27.25-.49,39.05-.49c7.51,0,13.43,1.35,17.78,4.05,4.87,3.05,7.3,7.57,7.3,13.55Z"/></svg>
