<?xml version="1.0" encoding="UTF-8"?><svg id="Layer_2" xmlns="http://www.w3.org/2000/svg" width="61" height="61" viewBox="0 0 61 61"><defs><style>.cls-1{fill:#000;stroke-width:0px;}</style></defs><polygon class="cls-1" points="60 42.4 60 18.35 47.04 31.07 60 42.4"/><path class="cls-1" d="M24.7,36.11c3.19,3.08,8.37,3.07,11.54-.04l23.76-23.32v-4.95c0-3.75-3.04-6.8-6.8-6.8H7.8C4.04,1,1,4.04,1,7.8v5.41l23.7,22.91Z"/><polygon class="cls-1" points="13.84 31.17 1 18.77 1 42.4 13.84 31.17"/><path class="cls-1" d="M44.18,33.88l-5.14,5.05c-2.36,2.32-5.48,3.48-8.59,3.48s-6.17-1.14-8.53-3.42l-5.2-5.02L1,47.72v5.48c0,3.75,3.04,6.8,6.8,6.8h45.41c3.75,0,6.8-3.04,6.8-6.8v-5.48l-15.82-13.84Z"/></svg>